#!OML:ASF X:\für Bonn\!DataBase\2005_08_12_Daniel\c3d\Daniel.ASF
:FULLY-SPECIFIED
:DEGREES
593
root 13.3101 17.2044 -19.5769 8.03005 -48.3403 -13.3188
lowerback 13.9136 2.64385 10.1493
upperback 1.37899 5.04884 0.695259
thorax -5.51019 2.23454 -5.8659
lowerneck 0.102794 7.9882 4.81567
upperneck 4.21028 10.9226 -7.87603
head 2.11211 5.39559 -3.14101
rclavicle -3.33958e-014 -3.49861e-014
rhumerus -23.607 4.95709 -83.5111
rradius 31.7999
rwrist 7.90099
rhand -21.6695 18.4156
rfingers 7.12502
rthumb 4.72792 -11.5117
lclavicle -3.33958e-014 -3.49861e-014
lhumerus -41.3108 30.9321 61.8897
lradius 21.5958
lwrist -29.4245
lhand -14.4808 -7.87583
lfingers 7.12502
lthumb 11.6654 21.7794
rfemur 29.8163 5.57003 32.933
rtibia -3.18055e-015
rfoot -17.9395 -11.091
rtoes -13.2244
lfemur -36.4472 -7.10589 -13.0974
ltibia 36.3103
lfoot -24.5425 9.70299
ltoes -13.8623
594
root 13.166 17.166 -19.4374 8.07333 -48.0728 -13.3067
lowerback 13.7642 2.64105 10.1499
upperback 1.41051 5.01886 0.574551
thorax -5.387 2.22842 -5.97769
lowerneck -0.174959 8.00329 4.8867
upperneck 4.16004 10.9401 -8.04055
head 2.16349 5.39755 -3.19749
rclavicle -7.26061e-014 1.51076e-014
rhumerus -23.1876 3.76045 -83.46
rradius 31.4102
rwrist 9.04766
rhand -21.5234 18.5333
rfingers 7.12502
rthumb 4.86894 -11.3908
lclavicle -7.26061e-014 1.51076e-014
lhumerus -41.7047 32.9471 60.0503
lradius 20.626
lwrist -31.6607
lhand -14.6385 -7.90914
lfingers 7.12502
lthumb 11.5134 21.7547
rfemur 30.3724 5.01554 32.7344
rtibia 2.54444e-014
rfoot -17.8235 -10.5994
rtoes -13.2068
lfemur -36.7021 -7.5789 -12.9866
ltibia 36.4235
lfoot -23.8357 9.90327
ltoes -13.0284
595
root 13.0223 17.1313 -19.2957 7.9441 -47.8424 -13.0943
lowerback 13.6761 2.65104 10.0027
upperback 1.43017 4.98968 0.405802
thorax -5.31866 2.22205 -6.06416
lowerneck -0.469734 8.00605 4.9645
upperneck 4.1112 10.9378 -8.15493
head 2.21394 5.3901 -3.23843
rclavicle 7.84702e-014 4.37326e-015
rhumerus -22.8306 2.48669 -83.4727
rradius 30.9776
rwrist 9.99129
rhand -21.4358 18.6894
rfingers 7.12502
rthumb 4.95353 -11.2327
lclavicle 7.84702e-014 4.37326e-015
lhumerus -42.2349 35.0462 58.0274
lradius 19.6476
lwrist -33.9625
lhand -14.7631 -7.81686
lfingers 7.12502
lthumb 11.3932 21.8536
rfemur 30.9511 4.48571 32.3757
rtibia 1.27222e-014
rfoot -17.6143 -10.1355
rtoes -13.2626
lfemur -36.8481 -7.79808 -13.1778
ltibia 36.6949
lfoot -22.9157 9.83096
ltoes -11.7829
596
root 12.8793 17.0989 -19.151 7.79068 -47.6336 -12.8618
lowerback 13.6272 2.67431 9.78888
upperback 1.44584 4.97496 0.268069
thorax -5.28252 2.22204 -6.08563
lowerneck -0.836034 8.01155 5.08425
upperneck 4.12198 10.944 -8.35751
head 2.30759 5.38318 -3.31305
rclavicle 2.6339e-014 7.95139e-015
rhumerus -22.5643 1.28953 -83.4709
rradius 30.6004
rwrist 10.6305
rhand -21.4321 18.7153
rfingers 7.12502
rthumb 4.95713 -11.2067
lclavicle 2.6339e-014 7.95139e-015
lhumerus -43.0486 37.4156 55.7347
lradius 18.6519
lwrist -36.5625
lhand -14.9716 -7.66286
lfingers 7.12502
lthumb 11.1922 22.0186
rfemur 31.5043 3.97816 31.9928
rtibia 3.18055e-014
rfoot -17.2385 -9.78365
rtoes -13.454
lfemur -36.9456 -8.04816 -13.4308
ltibia 37.1506
lfoot -21.4009 9.78687
ltoes -10.3676
597
root 12.7383 17.0676 -19.0048 7.54359 -47.4047 -12.5817
lowerback 13.6867 2.67711 9.54127
upperback 1.44873 4.94066 0.124937
thorax -5.3259 2.20766 -6.1
lowerneck -1.2233 8.00579 5.1926
upperneck 4.17342 10.9353 -8.53229
head 2.41521 5.36759 -3.37595
rclavicle 9.93923e-017 -5.1684e-015
rhumerus -22.42 0.2268 -83.5389
rradius 30.2893
rwrist 10.8745
rhand -21.4564 18.719
rfingers 7.12502
rthumb 4.93371 -11.2036
lclavicle 9.93923e-017 -5.1684e-015
lhumerus -44.2992 40.1469 52.8961
lradius 17.649
lwrist -39.5415
lhand -15.2253 -7.43504
lfingers 7.12502
lthumb 10.9474 22.2595
rfemur 32.1082 3.44758 31.5592
rtibia -4.77083e-014
rfoot -16.7255 -9.43256
rtoes -13.3358
lfemur -36.9887 -8.23945 -13.8003
ltibia 37.779
lfoot -19.5054 9.69531
ltoes -8.66143
